<svg width="26" height="25" viewBox="0 0 26 25" fill="none" xmlns="http://www.w3.org/2000/svg">
<path d="M9.35513 0.115576C9.44669 0.170405 9.52655 0.242736 9.59015 0.328437C9.65376 0.414138 9.69985 0.51153 9.72581 0.61505C9.75176 0.718569 9.75707 0.826188 9.74142 0.931758C9.72578 1.03733 9.68949 1.13878 9.63462 1.23033L5.49738 8.1252H20.5026L16.3638 1.23033C16.253 1.04544 16.2202 0.824121 16.2726 0.615065C16.325 0.406008 16.4584 0.226337 16.6432 0.115576C16.8281 0.00481456 17.0495 -0.0279631 17.2585 0.0244534C17.4676 0.0768698 17.6472 0.210187 17.758 0.395076L22.3974 8.1252H24.375C24.806 8.1252 25.2193 8.29641 25.524 8.60115C25.8288 8.9059 26 9.31923 26 9.7502V11.3752C26 11.8062 25.8288 12.2195 25.524 12.5243C25.2193 12.829 24.806 13.0002 24.375 13.0002V20.3127C24.375 21.3901 23.947 22.4235 23.1851 23.1853C22.4233 23.9472 21.3899 24.3752 20.3125 24.3752H5.6875C4.61006 24.3752 3.57675 23.9472 2.81488 23.1853C2.05301 22.4235 1.625 21.3901 1.625 20.3127V13.0002C1.19402 13.0002 0.780698 12.829 0.475951 12.5243C0.171205 12.2195 0 11.8062 0 11.3752V9.7502C0 9.31923 0.171205 8.9059 0.475951 8.60115C0.780698 8.29641 1.19402 8.1252 1.625 8.1252H3.60262L8.23875 0.395076C8.29358 0.303513 8.36591 0.22365 8.45161 0.160048C8.53731 0.0964453 8.6347 0.0503498 8.73822 0.0243945C8.84174 -0.00156081 8.94936 -0.00686733 9.05493 0.00877776C9.1605 0.0244228 9.26196 0.0607131 9.3535 0.115576H9.35513ZM3.25 13.0002V20.3127C3.25 20.9592 3.50681 21.5792 3.96393 22.0363C4.42105 22.4934 5.04103 22.7502 5.6875 22.7502H20.3125C20.959 22.7502 21.579 22.4934 22.0361 22.0363C22.4932 21.5792 22.75 20.9592 22.75 20.3127V13.0002H3.25ZM1.625 9.7502V11.3752H24.375V9.7502H1.625ZM6.5 14.6252C6.71549 14.6252 6.92215 14.7108 7.07452 14.8632C7.2269 15.0156 7.3125 15.2222 7.3125 15.4377V20.3127C7.3125 20.5282 7.2269 20.7349 7.07452 20.8872C6.92215 21.0396 6.71549 21.1252 6.5 21.1252C6.28451 21.1252 6.07785 21.0396 5.92548 20.8872C5.7731 20.7349 5.6875 20.5282 5.6875 20.3127V15.4377C5.6875 15.2222 5.7731 15.0156 5.92548 14.8632C6.07785 14.7108 6.28451 14.6252 6.5 14.6252ZM9.75 14.6252C9.96549 14.6252 10.1722 14.7108 10.3245 14.8632C10.4769 15.0156 10.5625 15.2222 10.5625 15.4377V20.3127C10.5625 20.5282 10.4769 20.7349 10.3245 20.8872C10.1722 21.0396 9.96549 21.1252 9.75 21.1252C9.53451 21.1252 9.32785 21.0396 9.17548 20.8872C9.0231 20.7349 8.9375 20.5282 8.9375 20.3127V15.4377C8.9375 15.2222 9.0231 15.0156 9.17548 14.8632C9.32785 14.7108 9.53451 14.6252 9.75 14.6252ZM13 14.6252C13.2155 14.6252 13.4222 14.7108 13.5745 14.8632C13.7269 15.0156 13.8125 15.2222 13.8125 15.4377V20.3127C13.8125 20.5282 13.7269 20.7349 13.5745 20.8872C13.4222 21.0396 13.2155 21.1252 13 21.1252C12.7845 21.1252 12.5778 21.0396 12.4255 20.8872C12.2731 20.7349 12.1875 20.5282 12.1875 20.3127V15.4377C12.1875 15.2222 12.2731 15.0156 12.4255 14.8632C12.5778 14.7108 12.7845 14.6252 13 14.6252ZM16.25 14.6252C16.4655 14.6252 16.6722 14.7108 16.8245 14.8632C16.9769 15.0156 17.0625 15.2222 17.0625 15.4377V20.3127C17.0625 20.5282 16.9769 20.7349 16.8245 20.8872C16.6722 21.0396 16.4655 21.1252 16.25 21.1252C16.0345 21.1252 15.8278 21.0396 15.6755 20.8872C15.5231 20.7349 15.4375 20.5282 15.4375 20.3127V15.4377C15.4375 15.2222 15.5231 15.0156 15.6755 14.8632C15.8278 14.7108 16.0345 14.6252 16.25 14.6252ZM19.5 14.6252C19.7155 14.6252 19.9222 14.7108 20.0745 14.8632C20.2269 15.0156 20.3125 15.2222 20.3125 15.4377V20.3127C20.3125 20.5282 20.2269 20.7349 20.0745 20.8872C19.9222 21.0396 19.7155 21.1252 19.5 21.1252C19.2845 21.1252 19.0778 21.0396 18.9255 20.8872C18.7731 20.7349 18.6875 20.5282 18.6875 20.3127V15.4377C18.6875 15.2222 18.7731 15.0156 18.9255 14.8632C19.0778 14.7108 19.2845 14.6252 19.5 14.6252Z" fill="white"/>
</svg>
