<svg width="62" height="25" viewBox="0 0 62 25" fill="none" xmlns="http://www.w3.org/2000/svg">
<path d="M12 16.3789C14.2091 16.3789 16 14.588 16 12.3789C16 10.1698 14.2091 8.37891 12 8.37891C9.79086 8.37891 8 10.1698 8 12.3789C8 14.588 9.79086 16.3789 12 16.3789Z" stroke="white" stroke-width="2" stroke-linecap="round" stroke-linejoin="round"/>
<path d="M16 8.37926V13.3793C16 14.1749 16.3161 14.938 16.8787 15.5006C17.4413 16.0632 18.2044 16.3793 19 16.3793C19.7957 16.3793 20.5587 16.0632 21.1213 15.5006C21.6839 14.938 22 14.1749 22 13.3793V12.3793C21.9999 10.1223 21.2362 7.93174 19.8333 6.16379C18.4303 4.39585 16.4706 3.15449 14.2726 2.64156C12.0747 2.12863 9.76794 2.3743 7.72736 3.33863C5.68677 4.30295 4.03241 5.92922 3.03327 7.95299C2.03413 9.97675 1.74898 12.279 2.22418 14.4854C2.69938 16.6918 3.90699 18.6725 5.65064 20.1055C7.39429 21.5386 9.57144 22.3396 11.8281 22.3784C14.0847 22.4172 16.2881 21.6915 18.08 20.3193" stroke="white" stroke-width="2" stroke-linecap="round" stroke-linejoin="round"/>
<g clip-path="url(#clip0_697_275)">
<path d="M46.9609 19.0004C41.9609 20.5004 41.9609 16.5004 39.9609 16.0004M53.9609 22.0004V18.1304C53.9984 17.6536 53.934 17.1742 53.772 16.7242C53.6099 16.2742 53.3539 15.8638 53.0209 15.5204C56.1609 15.1704 59.4609 13.9804 59.4609 8.52043C59.4607 7.12425 58.9236 5.78162 57.9609 4.77043C58.4168 3.54893 58.3846 2.19878 57.8709 1.00043C57.8709 1.00043 56.6909 0.650426 53.9609 2.48043C51.6689 1.85925 49.2529 1.85925 46.9609 2.48043C44.2309 0.650426 43.0509 1.00043 43.0509 1.00043C42.5373 2.19878 42.5051 3.54893 42.9609 4.77043C41.9911 5.78913 41.4535 7.14389 41.4609 8.55043C41.4609 13.9704 44.7609 15.1604 47.9009 15.5504C47.5719 15.8904 47.3182 16.2958 47.1562 16.7403C46.9943 17.1849 46.9277 17.6585 46.9609 18.1304V22.0004" stroke="white" stroke-width="2" stroke-linecap="round" stroke-linejoin="round"/>
</g>
<defs>
<clipPath id="clip0_697_275">
<rect width="24" height="24" fill="white" transform="translate(37.9609)"/>
</clipPath>
</defs>
</svg>
