<svg width="29" height="25" viewBox="0 0 29 25" fill="none" xmlns="http://www.w3.org/2000/svg">
<path d="M10.119 0.115576C10.218 0.170405 10.3044 0.242736 10.3732 0.328437C10.442 0.414138 10.4918 0.51153 10.5199 0.61505C10.548 0.718569 10.5537 0.826188 10.5368 0.931758C10.5199 1.03733 10.4806 1.13878 10.4213 1.23033L5.94624 8.1252H22.1767L17.6999 1.23033C17.5801 1.04544 17.5446 0.824121 17.6013 0.615064C17.658 0.406008 17.8022 0.226337 18.0022 0.115576C18.2022 0.00481456 18.4416 -0.0279631 18.6677 0.0244534C18.8938 0.0768698 19.0881 0.210187 19.208 0.395076L24.2261 8.1252H26.3652C26.8314 8.1252 27.2785 8.29641 27.6081 8.60115C27.9377 8.9059 28.1229 9.31923 28.1229 9.7502V11.3752C28.1229 11.8062 27.9377 12.2195 27.6081 12.5243C27.2785 12.829 26.8314 13.0002 26.3652 13.0002V20.3127C26.3652 21.3901 25.9023 22.4235 25.0782 23.1853C24.2541 23.9472 23.1364 24.3752 21.971 24.3752H6.15189C4.98647 24.3752 3.86879 23.9472 3.04471 23.1853C2.22064 22.4235 1.75768 21.3901 1.75768 20.3127V13.0002C1.29152 13.0002 0.844443 12.829 0.514813 12.5243C0.185184 12.2195 0 11.8062 0 11.3752V9.7502C0 9.31923 0.185184 8.9059 0.514813 8.60115C0.844443 8.29641 1.29152 8.1252 1.75768 8.1252H3.89678L8.91145 0.395076C8.97075 0.303513 9.04899 0.22365 9.14169 0.160048C9.23439 0.0964453 9.33973 0.0503498 9.4517 0.0243945C9.56368 -0.00156081 9.68008 -0.00686733 9.79427 0.00877776C9.90846 0.0244228 10.0182 0.0607131 10.1172 0.115576H10.119ZM3.51536 13.0002V20.3127C3.51536 20.9592 3.79314 21.5792 4.28758 22.0363C4.78203 22.4934 5.45264 22.7502 6.15189 22.7502H21.971C22.6703 22.7502 23.3409 22.4934 23.8353 22.0363C24.3298 21.5792 24.6075 20.9592 24.6075 20.3127V13.0002H3.51536ZM1.75768 9.7502V11.3752H26.3652V9.7502H1.75768ZM7.03073 14.6252C7.26381 14.6252 7.48735 14.7108 7.65216 14.8632C7.81698 15.0156 7.90957 15.2222 7.90957 15.4377V20.3127C7.90957 20.5282 7.81698 20.7349 7.65216 20.8872C7.48735 21.0396 7.26381 21.1252 7.03073 21.1252C6.79765 21.1252 6.57411 21.0396 6.40929 20.8872C6.24448 20.7349 6.15189 20.5282 6.15189 20.3127V15.4377C6.15189 15.2222 6.24448 15.0156 6.40929 14.8632C6.57411 14.7108 6.79765 14.6252 7.03073 14.6252ZM10.5461 14.6252C10.7792 14.6252 11.0027 14.7108 11.1675 14.8632C11.3323 15.0156 11.4249 15.2222 11.4249 15.4377V20.3127C11.4249 20.5282 11.3323 20.7349 11.1675 20.8872C11.0027 21.0396 10.7792 21.1252 10.5461 21.1252C10.313 21.1252 10.0895 21.0396 9.92466 20.8872C9.75984 20.7349 9.66725 20.5282 9.66725 20.3127V15.4377C9.66725 15.2222 9.75984 15.0156 9.92466 14.8632C10.0895 14.7108 10.313 14.6252 10.5461 14.6252V14.6252ZM14.0615 14.6252C14.2945 14.6252 14.5181 14.7108 14.6829 14.8632C14.8477 15.0156 14.9403 15.2222 14.9403 15.4377V20.3127C14.9403 20.5282 14.8477 20.7349 14.6829 20.8872C14.5181 21.0396 14.2945 21.1252 14.0615 21.1252C13.8284 21.1252 13.6048 21.0396 13.44 20.8872C13.2752 20.7349 13.1826 20.5282 13.1826 20.3127V15.4377C13.1826 15.2222 13.2752 15.0156 13.44 14.8632C13.6048 14.7108 13.8284 14.6252 14.0615 14.6252V14.6252ZM17.5768 14.6252C17.8099 14.6252 18.0334 14.7108 18.1983 14.8632C18.3631 15.0156 18.4557 15.2222 18.4557 15.4377V20.3127C18.4557 20.5282 18.3631 20.7349 18.1983 20.8872C18.0334 21.0396 17.8099 21.1252 17.5768 21.1252C17.3437 21.1252 17.1202 21.0396 16.9554 20.8872C16.7906 20.7349 16.698 20.5282 16.698 20.3127V15.4377C16.698 15.2222 16.7906 15.0156 16.9554 14.8632C17.1202 14.7108 17.3437 14.6252 17.5768 14.6252ZM21.0922 14.6252C21.3253 14.6252 21.5488 14.7108 21.7136 14.8632C21.8784 15.0156 21.971 15.2222 21.971 15.4377V20.3127C21.971 20.5282 21.8784 20.7349 21.7136 20.8872C21.5488 21.0396 21.3253 21.1252 21.0922 21.1252C20.8591 21.1252 20.6356 21.0396 20.4707 20.8872C20.3059 20.7349 20.2133 20.5282 20.2133 20.3127V15.4377C20.2133 15.2222 20.3059 15.0156 20.4707 14.8632C20.6356 14.7108 20.8591 14.6252 21.0922 14.6252Z" fill="white"/>
</svg>
